<svg version="1.1" id="Layer_1" xmlns="http://www.w3.org/2000/svg" xmlns:xlink="http://www.w3.org/1999/xlink" x="0px" y="0px"
	 width="900" viewBox="100 -10 1400 1110"  xml:space="preserve">

<path fill="#f65555e6" opacity="1.000000" stroke="" 
	d="
	M470.094635,66.673737 
	C485.406281,60.129330 500.562134,53.186249 516.063416,47.127056 
	C544.577515,35.981384 573.903259,27.335392 603.783875,20.698616 
	C618.506775,17.428522 633.336487,14.563752 648.211121,12.072306 
	C664.276428,9.381419 680.415344,7.043268 696.589966,5.122433 
	C707.033264,3.882236 717.601746,3.713360 728.106079,2.954298 
	C729.978149,2.819020 731.811157,2.144662 733.331116,1.359612 
	C764.354248,1.000000 795.708435,1.000000 827.531372,0.999986 
	C828.805969,1.663687 829.575500,2.852868 830.423340,2.911701 
	C841.764648,3.698663 853.148071,4.001213 864.458435,5.080218 
	C877.952271,6.367516 891.386230,8.283563 904.845398,9.932494 
	C915.873840,11.283620 926.937744,12.402191 937.919067,14.065118 
	C949.001404,15.743332 960.027100,17.833149 971.031433,19.979296 
	C987.592834,23.209215 1004.243164,26.117952 1020.619141,30.128883 
	C1040.412842,34.976925 1060.059692,40.497852 1079.588501,46.335266 
	C1105.209473,53.993759 1130.112915,63.669586 1154.295288,75.101517 
	C1165.886963,80.581345 1177.255005,86.534492 1188.541504,92.823166 
	C1186.393433,93.581108 1184.428711,93.965096 1182.462769,93.969887 
	C1163.651367,94.015732 1144.839233,93.933273 1126.028931,94.090454 
	C1124.002075,94.107391 1121.985962,95.408913 1119.964844,96.114578 
	C1112.683594,93.423874 1105.488770,90.464302 1098.104492,88.094734 
	C1078.844116,81.914185 1059.646973,75.457535 1040.148193,70.121704 
	C1021.714539,65.077316 1002.988281,61.038864 984.280212,57.080082 
	C968.384766,53.716457 952.369812,50.865685 936.335327,48.228477 
	C925.377747,46.426285 914.293091,45.400887 903.269897,43.991966 
	C893.226929,42.708332 883.195496,41.333290 873.148071,40.086292 
	C869.237671,39.600967 865.303650,39.252853 861.369812,39.020405 
	C849.184753,38.300396 836.999939,37.537731 824.804993,37.034641 
	C812.718567,36.536026 800.621887,36.211014 788.526428,36.034916 
	C777.193115,35.869911 765.831482,35.528423 754.525391,36.107323 
	C736.461487,37.032238 718.401855,38.331581 700.399292,40.079006 
	C684.471497,41.625042 668.506042,43.342735 652.771423,46.174850 
	C633.787048,49.591900 614.960999,53.982941 596.195984,58.491619 
	C583.623413,61.512424 571.276245,65.471115 558.266663,68.706276 
	C556.036499,67.935806 554.377258,67.111237 552.697449,67.066704 
	C546.563477,66.904099 540.422363,67.025139 534.284180,66.996979 
	C512.887634,66.898788 491.491150,66.782890 470.094635,66.673737 
z

M406.167786,830.993958 
	C410.028290,816.636841 415.951263,803.432800 426.150269,792.251709 
	C440.988708,775.984253 459.724091,766.793457 480.508026,760.956726 
	C498.868347,755.800537 517.546875,752.695984 536.600464,752.008728 
	C557.462219,751.256287 578.327332,750.250122 599.195190,750.138916 
	C613.391968,750.063171 627.647888,750.784302 641.786194,752.116882 
	C674.858398,755.234070 707.446533,761.183716 739.050781,771.628357 
	C754.811401,776.836975 770.488464,782.401245 785.835205,788.701538 
	C790.989807,790.817688 794.117493,788.546631 797.615295,786.636963 
	C824.106812,772.174133 851.534668,760.244141 881.477356,754.991089 
	C897.239258,752.225952 912.968262,749.098511 928.838318,747.176331 
	C943.544861,745.395081 958.409180,744.795105 973.223083,744.058044 
	C985.973206,743.423523 998.776306,742.662476 1011.509033,743.159607 
	C1028.603271,743.827026 1045.721069,745.083862 1062.700317,747.145630 
	C1078.231934,749.031555 1093.735107,751.696472 1108.992554,755.157043 
	C1127.955566,759.458008 1146.245972,765.912598 1163.107788,775.979187 
	C1174.528564,782.797607 1181.609253,792.903992 1185.879150,805.119324 
	C1188.286377,812.006348 1189.959839,819.149841 1191.440674,826.587891 
	C1179.905029,827.344421 1168.892456,827.690857 1157.561523,827.827393 
	C1155.454834,819.715881 1153.568237,811.444031 1146.694824,806.579834 
	C1140.518433,802.208923 1133.451294,798.776184 1126.333618,796.116150 
	C1105.157837,788.202087 1083.266846,782.931396 1060.698242,781.037598 
	C1041.653442,779.439392 1022.583618,777.955688 1003.494141,777.145081 
	C992.595093,776.682312 981.627686,777.523621 970.703674,778.042908 
	C960.659973,778.520386 950.561646,778.819031 940.614990,780.149902 
	C924.103333,782.359314 907.686951,785.290344 891.242981,787.993469 
	C860.631836,793.025330 833.083984,806.044067 806.486267,821.215637 
	C798.394653,825.831238 791.029236,828.933899 781.630798,825.000977 
	C765.260925,818.150757 748.785889,811.460022 732.025024,805.655029 
	C696.254517,793.266113 659.182495,787.292236 621.486267,785.061951 
	C609.741577,784.367126 597.959167,784.178223 586.191162,784.066956 
	C580.426941,784.012512 574.657227,784.687561 568.887939,784.995178 
	C556.188416,785.672485 543.481750,786.230530 530.788757,787.012329 
	C512.914124,788.113342 495.459442,791.443787 478.763702,798.024231 
	C467.415405,802.497009 456.686035,808.170898 449.276855,818.338806 
	C446.408539,822.275208 444.291565,826.759033 441.374146,830.994751 
	C429.333252,830.995300 417.750519,830.994629 406.167786,830.993958 
z

M1190.116211,934.037903 
	C1185.365479,953.544067 1177.721558,970.497864 1156.369141,977.423096 
	C1139.023071,983.049011 1121.355591,986.711426 1103.336914,989.006653 
	C1087.726074,990.995117 1072.133545,993.148132 1056.495117,994.890259 
	C1047.163452,995.929871 1037.756348,996.280701 1028.388306,997.006714 
	C1011.805298,998.291870 995.229675,999.674377 978.643616,1000.917603 
	C972.052002,1001.411743 965.443420,1001.714172 958.837585,1001.978516 
	C948.904785,1002.376038 938.964844,1002.597534 929.032898,1003.013367 
	C914.491394,1003.622131 899.954773,1004.345032 885.415344,1005.003967 
	C870.543640,1005.677979 855.675598,1006.467346 840.797852,1006.966553 
	C817.431946,1007.750671 794.058777,1008.314941 770.689758,1009.010742 
	C761.419189,1009.286804 752.149841,1009.984680 742.883179,1009.930298 
	C723.949036,1009.819275 705.013123,1009.473694 686.085510,1008.950928 
	C669.541321,1008.494080 653.001160,1007.789551 636.470947,1006.960327 
	C619.653320,1006.116577 602.842529,1005.096680 586.043091,1003.944458 
	C574.386719,1003.145081 562.725342,1002.249634 551.118408,1000.935913 
	C532.713135,998.852600 514.355652,996.349426 495.970062,994.088013 
	C478.424683,991.929932 461.137207,988.723328 444.283386,983.163757 
	C426.843201,977.410645 416.594360,964.543945 409.105774,948.824402 
	C407.298798,945.031372 406.333252,940.837585 405.328918,936.273315 
	C407.466370,935.479004 409.254272,935.044739 411.045135,935.032227 
	C420.973328,934.962769 430.902222,934.995850 440.910797,935.348877 
	C445.953613,948.174683 456.723511,952.780945 468.583069,954.839294 
	C488.723633,958.334900 508.975983,961.243103 529.242554,963.937683 
	C544.700195,965.992920 560.232178,967.568604 575.768616,968.928650 
	C590.715027,970.237183 605.703857,971.094849 620.684814,971.965027 
	C634.546570,972.770203 648.420593,973.376953 662.293152,973.981018 
	C671.889771,974.398926 681.494751,974.987915 691.093140,974.939636 
	C729.681091,974.745850 768.270081,974.489502 806.854004,973.931641 
	C824.228271,973.680481 841.592896,972.702881 858.959229,971.988403 
	C873.830688,971.376587 888.700867,970.722534 903.566956,969.992188 
	C922.874756,969.043701 942.180298,968.044922 961.482056,966.981567 
	C971.691895,966.419189 981.895996,965.732971 992.095215,964.998291 
	C1010.006897,963.708069 1027.916260,962.382996 1045.819824,960.984863 
	C1057.630859,960.062439 1069.480347,959.380676 1081.221802,957.880554 
	C1096.304565,955.953491 1111.410034,953.865540 1126.290161,950.800476 
	C1137.460571,948.499451 1150.177124,947.712952 1155.358154,933.971558 
	C1167.261597,933.998657 1178.688843,934.018311 1190.116211,934.037903 
z

M1264.883545,648.963989 
	C1268.974121,637.825073 1272.226929,626.281006 1277.368530,615.650330 
	C1283.737427,602.481873 1291.034424,589.649109 1299.103027,577.446533 
	C1307.807739,564.281616 1318.947998,553.194092 1335.134888,549.574646 
	C1340.531860,548.367920 1346.520630,548.326721 1351.992798,549.234924 
	C1364.664795,551.338013 1377.370728,553.689453 1389.723145,557.151733 
	C1405.522827,561.580200 1420.021851,568.929199 1432.962524,579.338745 
	C1445.880859,589.730225 1456.035645,602.270874 1463.378296,616.981384 
	C1469.958984,630.165222 1474.234741,644.177185 1476.013550,658.879883 
	C1476.227661,660.650574 1476.641846,662.397034 1476.440063,664.575439 
	C1469.807251,664.997498 1463.694092,664.866943 1457.589600,665.041626 
	C1452.681641,665.182007 1447.784302,665.692017 1442.548584,665.808716 
	C1441.817261,663.160706 1441.474121,660.731567 1441.013184,658.324951 
	C1435.669067,630.417786 1420.788818,609.329529 1395.453247,596.274109 
	C1380.070435,588.347473 1363.204590,585.030334 1346.126343,583.162048 
	C1343.523071,582.877258 1340.053467,583.944092 1338.067993,585.648071 
	C1325.454712,596.472961 1318.095459,611.005066 1311.030518,625.634521 
	C1307.156982,633.655640 1303.738037,641.896423 1299.638428,650.029419 
	C1287.736206,649.668518 1276.309937,649.316284 1264.883545,648.963989 
z

M810.053345,500.986511 
	C818.690430,527.374390 817.597107,552.490906 801.637146,575.432800 
	C793.590454,586.999634 781.476318,594.085449 767.770630,596.723938 
	C752.636841,599.637329 737.407532,599.458679 722.596619,593.360168 
	C706.767090,586.842346 695.838318,575.591187 690.197998,559.862488 
	C682.068420,537.191956 682.531555,514.462524 694.117615,492.888458 
	C702.640442,477.018036 716.419312,467.794098 733.988281,463.945984 
	C748.979065,460.662537 763.620911,461.547760 777.771179,467.404572 
	C793.205261,473.792816 803.891541,485.031830 810.053345,500.986511 
M715.996277,540.532104 
	C716.971497,544.621948 717.655823,548.808411 718.974792,552.784180 
	C723.536438,566.533997 735.172546,574.494446 748.807800,574.957458 
	C763.858887,575.468628 775.785278,567.215149 781.027527,554.108093 
	C786.866699,539.508301 786.553894,524.574585 782.258362,509.795593 
	C775.291992,485.827454 748.595581,480.160614 731.359680,491.763092 
	C717.706116,500.954132 712.660034,525.083862 715.996277,540.532104 
z

M469.791992,66.813820 
	C491.491150,66.782890 512.887634,66.898788 534.284180,66.996979 
	C540.422363,67.025139 546.563477,66.904099 552.697449,67.066704 
	C554.377258,67.111237 556.036499,67.935806 557.871826,68.762100 
	C542.187500,75.083420 526.022400,80.336143 510.563843,87.183914 
	C490.699921,95.983170 471.134583,105.557625 451.950745,115.757614 
	C437.637939,123.367683 423.661865,131.825714 410.394135,141.130081 
	C395.180389,151.799179 380.806091,163.684692 366.291901,175.322159 
	C360.761078,179.756790 355.854095,184.969482 350.011230,189.726013 
	C337.468079,189.415085 325.575165,189.257950 313.685974,188.955475 
	C311.080597,188.889175 308.488403,188.305161 305.890137,187.959564 
	C308.334930,184.736282 310.443665,181.175369 313.283386,178.348816 
	C324.917725,166.768234 336.224701,154.767899 348.678101,144.122147 
	C367.715729,127.847870 387.565582,112.465263 409.394470,100.008263 
	C429.248199,88.678436 449.444214,77.948364 469.791992,66.813820 
z

M125.165382,627.999939 
	C128.185852,616.768250 134.523102,607.241272 141.421204,598.222900 
	C159.750412,574.260071 184.868927,560.848450 213.684830,554.176147 
	C225.409424,551.461365 237.545898,550.366333 249.553177,549.075623 
	C261.749512,547.764587 271.411713,553.904175 279.918030,561.549561 
	C295.458099,575.516907 305.231995,593.543823 314.034393,612.146484 
	C314.313751,612.736816 314.626221,613.311401 314.391205,614.348145 
	C301.532990,614.883362 289.206787,614.963867 276.575867,614.871704 
	C270.940338,604.293945 264.690918,594.587585 256.102203,586.462158 
	C253.179398,583.697083 250.064743,582.356567 246.297897,583.056641 
	C236.226135,584.928406 226.020111,586.402588 216.189316,589.175720 
	C197.928146,594.326965 181.735001,603.173767 169.890884,618.617126 
	C167.231827,622.084167 164.656281,625.615295 161.699936,628.876587 
	C159.568192,628.424438 157.779770,628.039612 155.989212,628.029297 
	C145.714890,627.970337 135.440048,628.000244 125.165382,627.999939 
z

M1469.832275,906.995300 
	C1465.562012,916.820862 1462.207886,927.185791 1456.812500,936.348877 
	C1448.152344,951.056030 1434.145874,960.278748 1418.473511,965.762695 
	C1396.799927,973.346619 1374.533447,979.225159 1352.583252,986.034973 
	C1342.670410,989.110352 1333.156982,993.194336 1325.755249,1000.831726 
	C1323.266479,1003.399780 1321.331909,1006.504761 1318.530518,1009.680420 
	C1310.150269,1009.997559 1302.380981,1010.114746 1294.617676,1009.953979 
	C1290.367065,1009.866028 1286.126343,1009.308594 1281.932617,1008.585205 
	C1286.209351,997.125671 1291.517578,986.596741 1299.694580,977.910400 
	C1310.011597,966.950623 1322.801025,959.546936 1337.019775,955.041992 
	C1357.189331,948.651672 1377.654175,943.196472 1397.847900,936.878357 
	C1414.515503,931.663269 1428.526489,922.957153 1434.822266,905.501709 
	C1437.227539,906.220337 1439.299683,906.919495 1441.380493,906.945801 
	C1450.863037,907.065674 1460.348145,906.996521 1469.832275,906.995300 
z

M365.836426,978.999939 
	C365.553955,994.587830 366.024048,1010.236389 364.771942,1025.745972 
	C363.581024,1040.498169 362.590607,1055.565308 355.963226,1069.260498 
	C350.578094,1080.388428 342.429108,1088.986694 329.695679,1090.750732 
	C320.156189,1092.072388 311.139191,1088.510498 306.281097,1080.093628 
	C299.701172,1068.693481 294.657959,1056.403564 289.005981,1044.471436 
	C282.656799,1031.067261 276.413452,1017.612671 269.985199,1004.246887 
	C269.159607,1002.530273 267.500732,1001.214417 266.432251,999.170166 
	C268.761536,998.418335 270.883728,998.064880 273.011841,998.024292 
	C283.955078,997.815430 294.899902,997.686829 306.105225,997.737183 
	C313.342865,1014.025635 320.319366,1030.107178 327.295898,1046.188721 
	C327.788208,1046.190552 328.280548,1046.192261 328.772858,1046.194092 
	C329.847321,1030.607056 331.043152,1015.027039 331.940063,999.429810 
	C332.330627,992.637939 332.107788,985.810791 332.621979,979.000366 
	C343.999054,979.000671 354.917755,979.000305 365.836426,978.999939 
z

M305.844147,997.530273 
	C294.899902,997.686829 283.955078,997.815430 273.011841,998.024292 
	C270.883728,998.064880 268.761536,998.418335 266.291992,998.865601 
	C249.081284,986.221680 228.705414,982.443665 208.950653,976.943542 
	C189.798645,971.611206 170.549683,966.594971 153.948898,954.649048 
	C142.390762,946.331848 134.052048,935.875000 128.882874,922.727722 
	C128.348358,921.368286 127.664879,920.067322 127.566902,918.368347 
	C130.889420,917.998291 133.698196,918.078674 136.501205,917.985474 
	C145.708939,917.679199 154.914581,917.309875 164.428223,917.107056 
	C168.505264,920.835205 171.882797,924.993530 176.119934,927.897644 
	C187.887833,935.963196 201.669861,939.238464 215.173203,942.962097 
	C236.689148,948.895508 258.690216,953.427917 277.987915,965.499084 
	C290.517578,973.336792 300.390656,983.520996 305.844147,997.530273 
z

M653.005249,493.000000 
	C653.000549,525.330017 652.997925,557.159973 652.989380,588.989990 
	C652.987854,594.735657 652.055908,595.723267 646.132874,595.968323 
	C643.304688,596.085388 640.436279,595.717957 637.640564,596.040955 
	C629.359192,596.997986 623.766235,590.426758 623.863770,582.577637 
	C624.221802,553.751831 623.998840,524.918762 623.994812,496.088440 
	C623.991333,471.591003 624.168701,447.091095 623.831726,422.598236 
	C623.764648,417.727722 625.341431,415.453735 629.771851,415.189117 
	C634.578552,414.902008 639.478638,414.628754 644.222473,415.242401 
	C649.820007,415.966492 653.008667,420.562500 653.010498,426.506866 
	C653.017151,448.504578 653.008362,470.502289 653.005249,493.000000 
z

M1373.834229,345.994019 
	C1375.558228,359.451843 1377.674683,372.873718 1378.910889,386.376190 
	C1380.621704,405.063171 1381.911987,423.797791 1382.921265,442.536835 
	C1383.661377,456.276276 1383.811279,470.054291 1383.930420,483.817688 
	C1383.996216,491.418793 1377.460327,497.334198 1369.920654,498.063416 
	C1354.703125,499.535156 1350.075317,488.865051 1349.962891,478.463867 
	C1349.803345,463.700836 1349.817017,448.909851 1348.867554,434.188171 
	C1347.737549,416.667236 1345.829468,399.189331 1343.944702,381.726685 
	C1342.684448,370.051147 1340.877441,358.434692 1339.698486,346.394470 
	C1351.332642,345.996094 1362.583496,345.995056 1373.834229,345.994019 
z

M682.167175,330.994568 
	C682.114624,324.005280 681.365845,316.934265 682.174622,310.046112 
	C683.353821,300.001648 686.625977,290.464905 692.471313,281.982758 
	C703.197998,266.417358 717.989502,258.157623 736.737061,255.824585 
	C747.214600,254.520691 757.260193,255.119904 767.289917,257.971313 
	C781.809387,262.099152 793.044373,270.440399 801.135071,283.344727 
	C810.001282,297.485870 811.547852,313.000458 810.444092,329.532867 
	C800.333740,329.997009 790.750305,329.996582 781.112793,329.579346 
	C781.373779,327.414185 782.090820,325.629761 781.937439,323.923584 
	C781.064026,314.208099 780.396057,304.522888 775.348877,295.647125 
	C767.196106,281.310059 753.450745,276.599792 739.005249,279.644745 
	C725.235535,282.547211 717.384827,292.028198 713.852966,305.413147 
	C711.716736,313.508972 709.797729,321.578064 711.374756,329.997131 
	C701.333496,330.330139 691.750305,330.662354 682.167175,330.994568 
z

M845.168884,503.993622 
	C845.113342,489.003143 844.595825,473.994965 845.169128,459.028564 
	C845.534424,449.492645 846.025208,439.582947 851.461548,431.157227 
	C858.296997,420.563049 868.357727,414.219818 880.631042,412.127106 
	C893.541382,409.925751 906.684204,409.379578 919.422485,413.110168 
	C932.219238,416.857941 937.006714,425.495392 930.040710,437.033234 
	C928.713989,439.230713 927.647034,439.601624 925.044495,438.688263 
	C913.533875,434.648438 901.855774,432.114380 889.590698,435.720062 
	C879.757812,438.610687 874.695557,444.235535 874.056274,454.412659 
	C873.754028,459.225189 873.999756,464.072113 873.997559,468.903473 
	C873.996887,470.383331 873.997437,471.863190 873.997437,474.002655 
	C878.527222,474.002655 882.789246,474.002625 887.051270,474.002655 
	C898.713196,474.002716 910.376587,474.106110 922.035950,473.932648 
	C925.074280,473.887482 926.764893,474.775146 927.016357,477.826172 
	C927.352356,481.903748 928.156921,486.041473 927.759583,490.054321 
	C927.319031,494.504120 923.284485,496.976135 917.996399,496.985443 
	C903.861267,497.010376 889.726135,496.993896 874.966858,496.993896 
	C874.966858,499.246735 874.966858,501.174622 874.441162,503.549164 
	C864.333252,503.995087 854.751038,503.994354 845.168884,503.993622 
z

M1281.881104,1008.962891 
	C1286.126343,1009.308594 1290.367065,1009.866028 1294.617676,1009.953979 
	C1302.380981,1010.114746 1310.150269,1009.997559 1318.374756,1009.994873 
	C1309.885376,1030.667358 1301.148193,1051.435669 1291.897339,1071.972900 
	C1287.655029,1081.390869 1281.130493,1088.687988 1270.030151,1090.572876 
	C1263.648560,1091.656494 1257.853516,1090.288818 1252.674072,1087.014404 
	C1240.523071,1079.332886 1234.225464,1067.606201 1232.121216,1053.786255 
	C1230.246338,1041.473267 1229.346924,1029.012329 1227.971924,1016.621582 
	C1227.830200,1015.343994 1227.380615,1014.100525 1227.578369,1012.420166 
	C1238.999512,1011.999268 1249.916138,1011.999268 1261.037109,1012.374756 
	C1262.415894,1023.904358 1263.590454,1035.058472 1264.765015,1046.212524 
	C1266.923462,1043.926758 1268.000244,1041.444214 1269.064087,1038.956299 
	C1273.338623,1028.959351 1277.609131,1018.960815 1281.881104,1008.962891 
z

M943.950623,327.892670 
	C949.655334,319.031769 958.707581,315.185425 968.276001,313.224915 
	C978.810852,311.066376 989.637756,310.323456 1000.343262,309.011322 
	C1006.680847,308.234497 1013.029785,307.549530 1019.365234,306.824249 
	C1022.176514,289.718689 1012.944336,280.402283 997.469849,278.996033 
	C983.376770,277.715332 970.042725,280.636230 957.089966,285.984833 
	C955.155579,286.783630 951.836426,287.946564 951.052795,287.127747 
	C948.555054,284.517731 945.805969,281.247375 945.232422,277.878235 
	C943.901978,270.062927 947.202942,265.383423 955.584595,262.237457 
	C963.840637,259.138641 972.818420,257.941223 981.500671,256.004547 
	C992.016296,253.658951 1002.518616,254.925522 1012.808289,257.097992 
	C1028.733643,260.460266 1041.416382,268.433746 1046.324341,284.989624 
	C1047.785889,289.919647 1047.797974,295.362732 1047.931641,300.584625 
	C1048.165649,309.740051 1047.980591,318.906189 1047.444336,328.532745 
	C1037.907227,329.013245 1028.896851,329.028839 1019.440186,329.023773 
	C1013.366333,329.350525 1007.738953,329.697968 1001.719604,329.882751 
	C999.202515,329.480103 997.078003,329.040863 994.951843,329.032257 
	C980.025024,328.971741 965.097534,329.042694 950.171021,328.950684 
	C948.095459,328.937897 946.023987,328.261749 943.950623,327.892670 
z

M869.831726,265.994629 
	C871.522034,266.328369 873.210815,266.942596 874.902893,266.951721 
	C889.222351,267.029022 903.543457,267.085876 917.861450,266.921814 
	C920.810547,266.888062 922.158569,267.817444 923.229736,270.552185 
	C926.092041,277.859619 924.061584,286.809448 918.515015,289.084351 
	C916.917603,289.739502 915.042297,289.954407 913.292480,289.962952 
	C899.351379,290.031128 885.409851,290.001007 870.999939,290.001007 
	C870.999939,292.235718 871.000183,294.020752 870.999878,295.805817 
	C870.995605,323.946014 870.991516,352.086243 870.986694,380.226440 
	C870.985474,387.379303 870.094788,388.408356 862.717407,388.942688 
	C859.570190,389.170685 856.346130,389.328644 853.238586,388.910858 
	C846.226501,387.968079 841.814880,384.136139 841.875244,376.817688 
	C842.177185,340.188019 842.018066,303.554504 842.552551,266.459473 
	C852.000000,265.995911 860.915833,265.995270 869.831726,265.994629 
z

M1019.886597,329.044464 
	C1028.896851,329.028839 1037.907227,329.013245 1047.375488,328.996643 
	C1047.888550,342.322266 1048.092773,355.650696 1047.931763,368.974762 
	C1047.857910,375.097229 1043.599609,378.367706 1038.600342,381.122253 
	C1027.530029,387.221802 1015.705627,389.868011 1003.171509,391.222443 
	C990.323181,392.610901 977.901917,391.339203 965.791626,387.856140 
	C944.226135,381.653595 933.600098,365.104309 937.909790,342.590912 
	C938.859619,337.629028 941.461853,332.983429 943.626892,328.042419 
	C946.023987,328.261749 948.095459,328.937897 950.171021,328.950684 
	C965.097534,329.042694 980.025024,328.971741 994.951843,329.032257 
	C997.078003,329.040863 999.202515,329.480103 1001.483887,330.243713 
	C993.433533,332.002441 985.097168,332.697113 977.058533,334.630127 
	C969.565002,336.432007 966.050598,341.582825 966.002441,348.257050 
	C965.943359,356.434845 970.165649,363.864380 976.865845,365.847473 
	C990.315857,369.828430 1003.702087,369.490570 1016.823608,364.071869 
	C1019.017273,363.165955 1020.122498,362.105377 1020.068420,359.472351 
	C1019.860291,349.332733 1019.924133,339.187561 1019.886597,329.044464 
z

M1373.899536,345.580078 
	C1362.583496,345.995056 1351.332642,345.996094 1339.623779,345.995544 
	C1335.358154,322.880798 1329.842529,300.275177 1320.378052,278.708984 
	C1312.713867,261.245361 1303.667847,244.584015 1293.500366,228.357239 
	C1304.656982,228.018738 1315.483032,228.063965 1326.307373,227.952148 
	C1328.225708,227.932343 1330.137085,227.258636 1332.051758,226.886887 
	C1334.047974,229.991577 1336.248535,232.985092 1338.007812,236.218643 
	C1351.176758,260.423676 1361.459961,285.791962 1367.760010,312.647461 
	C1370.278076,323.381500 1371.922607,334.320465 1373.899536,345.580078 
z

M628.224304,315.165955 
	C641.862488,319.152252 652.599731,326.489471 656.008789,341.150696 
	C661.488525,364.716797 651.473633,383.158447 626.772278,388.801331 
	C608.095764,393.067932 589.194580,392.772064 571.017822,385.831390 
	C564.036926,383.165833 557.557495,379.255920 555.442322,371.003021 
	C554.168457,366.032867 557.763123,357.094177 562.365601,355.414886 
	C563.586487,354.969421 565.592346,355.682495 566.847778,356.478607 
	C579.020386,364.197754 592.116516,368.831848 606.666504,367.884491 
	C611.284180,367.583771 615.953918,366.313446 620.346802,364.767731 
	C626.072083,362.753082 628.810303,357.719696 628.792480,352.110046 
	C628.775208,346.674194 626.562012,341.275757 620.966187,339.118134 
	C613.737549,336.330933 606.263672,334.117950 598.786743,332.050934 
	C587.666504,328.976776 576.271667,326.674103 567.431091,318.181763 
	C569.598206,317.419830 571.557739,317.034058 573.518494,317.028015 
	C589.628479,316.978607 605.739197,317.067230 621.847961,316.918213 
	C623.978577,316.898499 626.099121,315.777130 628.224304,315.165955 
z

M682.094604,331.437073 
	C691.750305,330.662354 701.333496,330.330139 711.447327,330.431702 
	C711.987854,345.703339 722.161560,363.110168 736.544739,366.443176 
	C749.296875,369.398254 760.362183,367.254242 769.535278,358.651886 
	C777.510925,351.172516 780.736206,340.954559 781.166931,329.996155 
	C790.750305,329.996582 800.333740,329.997009 810.375122,329.996460 
	C809.956360,357.104401 794.438660,381.854248 766.367126,388.838104 
	C748.462341,393.292542 730.379333,392.871765 713.709290,383.821167 
	C696.799255,374.640259 686.440674,360.249756 683.023499,341.149536 
	C682.477417,338.097534 682.345459,334.971436 682.094604,331.437073 
z

M1442.882324,666.038086 
	C1447.784302,665.692017 1452.681641,665.182007 1457.589600,665.041626 
	C1463.694092,664.866943 1469.807251,664.997498 1476.374756,664.994690 
	C1477.209473,705.683594 1477.586304,746.374023 1477.440186,787.530273 
	C1466.000488,787.995361 1455.083618,787.994690 1444.101929,787.529663 
	C1443.652100,746.722900 1443.267212,706.380493 1442.882324,666.038086 
z

M1444.166870,787.993958 
	C1455.083618,787.994690 1466.000488,787.995361 1477.375244,787.994507 
	C1477.888184,807.630737 1478.639893,827.298218 1477.803955,846.898010 
	C1476.953979,866.825073 1475.364746,886.797241 1469.899170,906.592468 
	C1460.348145,906.996521 1450.863037,907.065674 1441.380493,906.945801 
	C1439.299683,906.919495 1437.227539,906.220337 1435.018311,905.193604 
	C1435.592163,902.055176 1436.329712,899.562256 1437.000977,897.051636 
	C1442.395508,876.874695 1443.125732,856.141418 1443.892822,835.470581 
	C1444.479492,819.663391 1444.110718,803.820801 1444.166870,787.993958 
z

	M1332.021240,226.527893 
	C1330.137085,227.258636 1328.225708,227.932343 1326.307373,227.952148 
	C1315.483032,228.063965 1304.656982,228.018738 1293.355347,228.036011 
	C1283.814087,216.760223 1274.881714,205.365707 1265.653931,194.215775 
	C1250.810425,176.280365 1232.632812,162.009232 1214.188599,148.061157 
	C1213.937866,147.871552 1213.570190,147.836548 1213.447021,147.182480 
	C1215.593750,146.424911 1217.549683,146.040543 1219.507202,146.031921 
	C1232.109131,145.976501 1244.711914,146.054565 1257.313354,145.955887 
	C1259.584717,145.938095 1261.851318,145.304291 1264.120117,144.954895 
	C1285.288086,163.038284 1303.679565,183.608765 1319.260620,206.676758 
	C1323.603638,213.106812 1327.752808,219.667923 1332.021240,226.527893 
	z
	
	M977.051941,465.535339 
	C983.403625,467.457733 985.988098,470.581329 985.992126,476.643158 
	C986.017273,514.437805 985.973999,552.232483 986.033081,590.026978 
	C986.037903,593.103394 985.670837,595.244019 981.856812,595.104919 
	C975.711853,594.880798 969.437134,595.563110 963.450134,594.522461 
	C958.885010,593.729004 956.997375,589.427734 956.998840,584.665344 
	C957.010864,546.537720 957.030029,508.410034 956.926819,470.282715 
	C956.919250,467.480377 958.110657,466.235779 960.501343,466.062256 
	C965.901367,465.670502 971.318359,465.512482 977.051941,465.535339 
	z

M1190.435547,933.824280 
	C1178.688843,934.018311 1167.261597,933.998657 1155.422852,933.590942 
	C1156.010620,930.111938 1157.430420,927.087402 1157.931396,923.917664 
	C1159.514160,913.903076 1161.156250,903.868225 1162.008179,893.776489 
	C1162.814575,884.224548 1163.417236,874.535278 1162.725220,865.007019 
	C1161.826294,852.631775 1159.558594,840.355957 1157.880005,828.037354 
	C1168.892456,827.690857 1179.905029,827.344421 1191.375488,826.997009 
	C1192.883057,831.557922 1194.621094,836.083801 1194.861450,840.687927 
	C1195.825073,859.130554 1197.253174,877.626831 1196.672485,896.045349 
	C1196.276245,908.616760 1192.834961,921.092285 1190.435547,933.824280 
z

M440.830872,934.993835 
	C430.902222,934.995850 420.973328,934.962769 411.045135,935.032227 
	C409.254272,935.044739 407.466370,935.479004 405.285706,935.882385 
	C403.268341,929.653198 400.887360,923.342285 400.182007,916.849304 
	C398.921814,905.248962 397.771759,893.504456 398.214050,881.882629 
	C398.858154,864.956970 400.368805,847.993347 406.084839,831.378540 
	C417.750519,830.994629 429.333252,830.995300 441.432861,831.376953 
	C436.938354,844.801514 434.025909,858.357483 433.111664,872.241455 
	C432.519470,881.234253 432.908508,890.298767 433.018585,899.329163 
	C433.169861,911.739624 435.952759,923.603638 440.830872,934.993835 
z

M115.165909,822.994812 
	C115.118210,788.971008 115.070511,754.947266 115.551895,720.460693 
	C126.999031,719.996948 137.917084,719.995911 148.906158,720.459229 
	C148.929504,754.947449 148.881821,788.971497 148.375870,822.996826 
	C137.000366,822.997009 126.083138,822.995911 115.165909,822.994812 
z

M627.891479,315.059143 
	C626.099121,315.777130 623.978577,316.898499 621.847961,316.918213 
	C605.739197,317.067230 589.628479,316.978607 573.518494,317.028015 
	C571.557739,317.034058 569.598206,317.419830 567.294006,317.868317 
	C560.338989,312.931335 557.886230,305.962189 556.875488,297.765228 
	C554.228027,276.293793 569.402039,261.383362 587.099304,257.467010 
	C606.062195,253.270538 624.812744,253.558075 642.622009,262.318390 
	C654.179138,268.003296 655.685242,282.159088 645.979431,288.330872 
	C636.789124,285.179596 628.424805,281.356049 619.646118,279.577484 
	C611.317322,277.890106 602.510254,277.756561 594.197205,281.032837 
	C588.904419,283.118774 584.886169,288.495209 585.000122,293.245880 
	C585.133423,298.808044 589.200317,304.163971 595.365967,305.929077 
	C605.476257,308.823395 615.695496,311.336914 625.860352,314.042480 
	C626.464355,314.203308 626.994263,314.642639 627.891479,315.059143 
z

M339.835724,690.997742 
	C341.891052,700.015747 344.270508,708.974915 345.923065,718.066101 
	C348.200439,730.594421 350.079590,743.201660 351.834473,755.816101 
	C352.852386,763.133057 353.276520,770.532104 354.000793,777.890930 
	C354.272186,780.648621 354.636841,783.397034 354.438232,786.572998 
	C342.667206,786.995544 331.416901,786.994873 320.101685,786.548584 
	C319.693817,782.677551 319.371460,779.250000 319.004333,775.827148 
	C317.659607,763.289429 316.882660,750.655518 314.799774,738.241089 
	C312.142029,722.400269 308.424774,706.737183 305.622498,690.998413 
	C317.332489,690.998779 328.584106,690.998291 339.835724,690.997742 
z

M1263.973389,144.640396 
	C1261.851318,145.304291 1259.584717,145.938095 1257.313354,145.955887 
	C1244.711914,146.054565 1232.109131,145.976501 1219.507202,146.031921 
	C1217.549683,146.040543 1215.593750,146.424911 1213.293457,146.874847 
	C1199.197266,138.501297 1185.842407,129.150925 1171.588745,121.467827 
	C1154.901855,112.473045 1137.432129,104.930389 1120.133423,96.436180 
	C1121.985962,95.408913 1124.002075,94.107391 1126.028931,94.090454 
	C1144.839233,93.933273 1163.651367,94.015732 1182.462769,93.969887 
	C1184.428711,93.965096 1186.393433,93.581108 1188.703369,93.135872 
	C1199.179688,98.913406 1209.717407,104.347153 1219.346436,111.080444 
	C1233.450317,120.942863 1246.901123,131.739227 1260.638550,142.126572 
	C1261.667358,142.904572 1262.762451,143.594833 1263.973389,144.640396 
z

M1228.166504,923.996826 
	C1229.090210,908.913574 1230.008301,893.829956 1230.940674,878.747253 
	C1231.275513,873.330688 1231.655273,867.916992 1231.995117,862.500793 
	C1232.695190,851.339661 1233.375244,840.177246 1234.099976,829.017700 
	C1234.128418,828.580994 1234.531982,828.168640 1235.421631,827.371155 
	C1246.999512,826.996643 1257.916504,826.995911 1268.903809,827.426941 
	C1268.320190,834.026428 1267.531250,840.183411 1267.040039,846.364075 
	C1265.948853,860.097595 1264.944214,873.838806 1264.022705,887.584839 
	C1263.209473,899.716797 1262.557007,911.859619 1261.375244,923.998474 
	C1250.000122,923.998474 1239.083374,923.997620 1228.166504,923.996826 
z

M365.901917,978.535156 
	C354.917755,979.000305 343.999054,979.000671 332.556519,978.535645 
	C330.742737,946.047546 329.452820,914.024963 328.621338,882.003174 
	C340.332245,882.003479 351.584686,882.002991 362.837128,882.002563 
	C363.880524,914.025208 364.923950,946.047791 365.901917,978.535156 
z

M115.095543,823.459167 
	C126.083138,822.995911 137.000366,822.997009 148.446198,823.461060 
	C149.647614,837.412231 150.264038,850.903503 151.007004,864.387817 
	C152.018326,882.742554 155.069199,900.606873 164.121017,916.964722 
	C154.914581,917.309875 145.708939,917.679199 136.501205,917.985474 
	C133.698196,918.078674 130.889420,917.998291 127.625427,917.996460 
	C124.784416,910.084778 121.589302,902.316589 120.172020,894.236633 
	C116.097305,871.006592 114.465652,847.528076 115.095543,823.459167 
z

M362.881287,881.580322 
	C351.584686,882.002991 340.332245,882.003479 328.556763,881.544067 
	C327.671875,873.508423 327.508820,865.916748 326.905945,858.360229 
	C325.732758,843.655334 324.357544,828.966003 322.978851,814.278381 
	C322.124390,805.175842 321.109497,796.088440 320.166626,786.994202 
	C331.416901,786.994873 342.667206,786.995544 354.375427,786.994751 
	C356.227814,804.018799 357.647156,821.042419 359.008606,838.070740 
	C360.043030,851.008911 360.985168,863.954529 362.023560,876.892395 
	C362.138885,878.329224 362.616058,879.736877 362.881287,881.580322 
z

M148.835129,719.994934 
	C137.917084,719.995911 126.999031,719.996948 115.622925,719.996582 
	C115.111374,704.227478 114.309311,688.416504 115.219566,672.704712 
	C116.091133,657.660583 118.596291,642.687134 124.993965,628.336304 
	C135.440048,628.000244 145.714890,627.970337 155.989212,628.029297 
	C157.779770,628.039612 159.568192,628.424438 161.672821,629.240601 
	C152.639633,647.956299 148.805313,667.293640 148.973160,687.567078 
	C149.062637,698.375244 148.889664,709.185608 148.835129,719.994934 
z

M1264.564087,649.158325 
	C1276.309937,649.316284 1287.736206,649.668518 1299.590576,650.422363 
	C1299.901978,651.462524 1299.871338,652.131836 1299.656006,652.735229 
	C1291.996826,674.189758 1285.939453,696.069153 1281.932739,718.513062 
	C1280.767212,725.041626 1279.209595,731.500122 1277.373413,737.992126 
	C1265.999634,737.993347 1255.084106,737.993164 1244.168457,737.992920 
	C1245.603882,728.680298 1246.420532,719.220032 1248.600830,710.085205 
	C1253.453369,689.754639 1258.987915,669.586792 1264.564087,649.158325 
z

M1243.971191,738.361694 
	C1255.084106,737.993164 1265.999634,737.993347 1277.444702,738.426270 
	C1276.636353,751.414795 1275.267334,763.967468 1273.968262,776.527405 
	C1272.228516,793.347107 1270.542603,810.172363 1268.833496,826.995178 
	C1257.916504,826.995911 1246.999512,826.996643 1235.624512,826.996399 
	C1236.070068,815.742615 1236.954102,804.488220 1237.883301,793.237610 
	C1238.557617,785.073914 1239.143311,776.898926 1240.036743,768.758423 
	C1241.136841,758.733093 1242.515747,748.738342 1243.971191,738.361694 
z

M264.833801,411.994476 
	C263.890564,418.436615 262.867218,424.868286 262.022308,431.323303 
	C260.644073,441.853302 259.252258,452.384552 258.112762,462.941895 
	C257.214264,471.266693 256.483368,479.621002 256.050171,487.981506 
	C255.586288,496.933502 248.765411,503.785736 239.586472,503.992249 
	C230.250854,504.202240 222.035217,497.526276 222.178040,488.525177 
	C222.341614,478.216370 223.732071,467.922089 224.709549,457.632904 
	C225.359528,450.791107 226.180740,443.964661 226.996170,437.139801 
	C227.964539,429.034729 229.008957,420.938751 230.551376,412.417908 
	C242.332809,411.996124 253.583313,411.995300 264.833801,411.994476 
z

M1228.097046,924.454834 
	C1239.083374,923.997620 1250.000122,923.998474 1261.444702,924.461853 
	C1261.648560,940.155396 1261.232666,955.385254 1261.028320,970.617859 
	C1260.843262,984.410095 1260.888916,998.205322 1260.832886,1011.999268 
	C1249.916138,1011.999268 1238.999512,1011.999268 1227.625000,1011.998657 
	C1227.111694,987.562134 1227.002686,963.126099 1227.048706,938.690369 
	C1227.057373,934.097229 1227.685425,929.505310 1228.097046,924.454834 
z

M264.901459,411.566345 
	C253.583313,411.995300 242.332809,411.996124 230.624298,411.995697 
	C231.515213,402.177582 232.606201,392.316650 234.275208,382.554504 
	C236.624802,368.811554 239.362228,355.133972 242.023605,341.445923 
	C242.790298,337.502625 243.865753,333.619354 245.441681,329.352600 
	C257.333221,328.995941 268.582764,328.995270 279.832306,328.994568 
	C275.540710,352.213867 271.234100,375.430450 266.971375,398.655029 
	C266.210754,402.798981 265.631897,406.976288 264.901459,411.566345 
z

M869.900757,265.530945 
	C860.915833,265.995270 852.000000,265.995911 842.626160,265.995605 
	C842.740417,255.161133 842.305115,244.153976 844.135620,233.537445 
	C846.513367,219.745804 856.472290,211.414047 869.201050,207.165085 
	C885.536621,201.712189 902.245117,201.287689 918.707825,207.066299 
	C928.803833,210.610123 931.805298,218.799133 927.107971,228.625763 
	C925.466797,232.058945 923.484558,232.467377 919.990234,231.089828 
	C908.930054,226.729614 897.372131,225.426163 885.794312,228.227448 
	C875.405334,230.741058 871.294861,236.866486 870.089905,248.583893 
	C869.530396,254.024933 869.978394,259.569580 869.900757,265.530945 
z

M339.902618,690.588379 
	C328.584106,690.998291 317.332489,690.998779 305.542694,690.607910 
	C304.737183,689.626892 304.410950,689.056580 304.211182,688.444946 
	C299.224915,673.177856 294.612579,657.775818 289.145081,642.683411 
	C285.720398,633.230042 281.012634,624.241516 276.880615,615.044373 
	C289.206787,614.963867 301.532990,614.883362 314.385681,614.742920 
	C324.556305,634.954529 331.382782,656.211365 336.985931,677.892883 
	C338.040314,681.972778 338.977997,686.082886 339.902618,690.588379 
z

M279.911194,328.602417 
	C268.582764,328.995270 257.333221,328.995941 245.625732,328.995575 
	C247.839264,317.512115 250.015106,305.885254 253.309036,294.584290 
	C257.325775,280.803436 262.282257,267.296509 267.457855,253.334595 
	C279.999878,252.997208 291.916351,252.996353 303.832825,252.995514 
	C299.702209,264.361450 295.166016,275.600159 291.550110,287.127533 
	C287.583099,299.774231 284.469330,312.688324 280.966675,325.481262 
	C280.712250,326.410370 280.318817,327.301453 279.911194,328.602417 
z

M845.096558,504.457825 
	C854.751038,503.994354 864.333252,503.995087 874.373291,503.994690 
	C874.884033,532.926331 874.924622,561.859070 875.011963,590.791687 
	C875.019409,593.248657 874.654602,594.956055 871.596741,595.046326 
	C866.180054,595.206116 860.721375,596.245361 855.371704,595.805115 
	C848.327820,595.225464 845.028992,589.952209 845.018921,580.755493 
	C844.991272,555.477661 845.018616,530.199829 845.096558,504.457825 
z

M303.989441,252.669006 
	C291.916351,252.996353 279.999878,252.997208 267.625427,252.997406 
	C274.680298,231.435898 285.731018,211.866180 300.241821,194.245377 
	C301.905212,192.225525 303.594055,190.226639 305.580627,188.088791 
	C308.488403,188.305161 311.080597,188.889175 313.685974,188.955475 
	C325.575165,189.257950 337.468079,189.415085 349.703430,189.863190 
	C340.615326,200.982224 330.562988,211.397507 321.948486,222.890533 
	C315.102325,232.024277 310.014526,242.475967 303.989441,252.669006 
z

M985.858521,437.629822 
	C976.770081,446.666077 965.683228,446.875763 957.815674,438.258057 
	C953.108765,433.102509 952.831116,426.880524 955.226074,420.786346 
	C957.471497,415.073090 962.119568,411.605804 968.346802,411.066467 
	C973.436096,410.625702 978.494446,410.816101 982.862976,414.302216 
	C989.613892,419.689331 990.788147,429.572235 985.858521,437.629822 
z


"
/>
</svg>